TITLE "Mars Attacks!"
PERFORMER "Danny Elfman"
CATALOG 0075678299223
REM GENRE "soundtrack"
REM DATE "1997"
REM DISCID FE0AFC13
FILE "Mars Attacks!.flac" WAVE
  TRACK 01 AUDIO
    TITLE "Introduction"
    INDEX 00 00:00:00
    INDEX 01 00:00:32
  TRACK 02 AUDIO
    TITLE "Main Titles"
    INDEX 01 01:41:12
  TRACK 03 AUDIO
    TITLE "First Sighting"
    INDEX 01 04:03:17
  TRACK 04 AUDIO
    TITLE "The Landing"
    INDEX 01 05:29:72
  TRACK 05 AUDIO
    TITLE "Ungodly Experiments"
    INDEX 01 11:30:70
  TRACK 06 AUDIO
    TITLE "State Address"
    INDEX 01 12:24:32
  TRACK 07 AUDIO
    TITLE "Martian Madame"
    INDEX 01 15:29:10
  TRACK 08 AUDIO
    TITLE "Martian Lounge"
    INDEX 01 18:31:17
  TRACK 09 AUDIO
    TITLE "Return Message"
    INDEX 01 21:24:50
  TRACK 10 AUDIO
    TITLE "Destructo X"
    INDEX 01 23:42:07
  TRACK 11 AUDIO
    TITLE "Loving Heads"
    INDEX 01 24:59:15
  TRACK 12 AUDIO
    TITLE "Pursuit"
    INDEX 01 26:19:42
  TRACK 13 AUDIO
    TITLE "The War Room"
    INDEX 01 29:14:37
  TRACK 14 AUDIO
    TITLE "Airfield Dilemma"
    INDEX 01 30:46:02
  TRACK 15 AUDIO
    TITLE "New World"
    INDEX 01 32:51:12
  TRACK 16 AUDIO
    TITLE "Ritchie's Speech"
    INDEX 01 34:35:47
  TRACK 17 AUDIO
    TITLE "End Credits"
    INDEX 01 37:44:32
  TRACK 18 AUDIO
    TITLE "Indian Love Call (Slim Whitman)"
    INDEX 00 41:38:17
    INDEX 01 41:44:32
  TRACK 19 AUDIO
    TITLE "It's Not Unusual (Tom Jones)"
    INDEX 01 44:53:02
